<svg xmlns="http://www.w3.org/2000/svg" width="1161.587" height="417.723" viewBox="0 0 1161.587 417.723">
  <g id="Group_344" data-name="Group 344" transform="translate(-996 -646.781)">
    <g id="Group_16" data-name="Group 16" transform="translate(1340.593 646.781)">
      <path id="Path_132" data-name="Path 132" d="M2177.26,871.232c-30.461-3.851-61.3-3.591-91.5,2.075q.268-1.039.545-2.051c3.013-11.045,6.381-22.005,9.572-33,2.913-10.036,7.024-20.421,8.453-30.8,1.083-7.846-1.165-16.423-8.992-19.809-.015-.007-.029-.008-.044-.015q.594-2.629.943-5.312c.653-5.05,1.555-12.324-3.4-15.625-4.97-3.314-10.567.3-13.107,4.847a78.275,78.275,0,0,0-3.859,8.12,97.131,97.131,0,0,0-7.661,15.826c-1.628,4.339-4.36,10.631-4.525,15.994a258.049,258.049,0,0,0-22.514,65.835c-.737,3.758,5.024,5.366,5.764,1.589a252.985,252.985,0,0,1,19.679-59.829,8.437,8.437,0,0,0,9.478.084c5.735-3.489,10.343-10.539,13.461-16.3a59.956,59.956,0,0,0,4.082-9.384c5.944,3.535,5.467,11.017,3.969,17.2-1.671,6.89-3.92,13.676-5.9,20.482-3.928,13.537-8.322,27.029-11.766,40.7-2.248,8.921-2.753,20.2,5.482,26.379,6.232,4.673,15.843,3.242,19.29-4.1,1.625-3.461-3.527-6.5-5.162-3.017-3,6.391-10.675,4.018-13.463-1.206a17.294,17.294,0,0,1-1.574-10.316,278,278,0,0,1,72.7-4.495,208.507,208.507,0,0,1-81.359,64.268c-4.606,2.026-9.846,4.38-14.909,2.639-3.265-1.124-5.843-3.622-8.265-5.989-4.007-3.916-7.827-8.463-13.164-10.59-6.154-2.45-11.782-.128-17.455,2.431-4.58,2.066-8.564,3.456-12.87.1-2.73-2.128-4.688-5.112-7.465-7.212-7.444-5.632-14.309-1.678-22.075.973a21.052,21.052,0,0,1-24.872-9.43,3.054,3.054,0,0,0-4.447-2.277c-8.365,4.513-18.411,1.047-23.755-6.464-5.283-7.425-6-17.145-4.41-25.866a82.564,82.564,0,0,1,2.785-10.795,3.35,3.35,0,0,0,1.326-3.369c-.02-.092-.038-.184-.056-.275,4.164-11.235,10.363-22.018,16.737-31.694,1.5-2.282,3.081-4.511,4.692-6.717a11.221,11.221,0,0,0,.878,1.306,15.171,15.171,0,0,0,15.3,6.956c.543-.083,1.075-.192,1.593-.319q-1.083,1.58-2.226,3.178c-8.821,12.372-8.642,26.091-7.212,40.659a3.174,3.174,0,0,0,.36,1.2l-.034.054c.053.051.109.1.161.144a3.188,3.188,0,0,0,1.908,1.335,7.668,7.668,0,0,0,8.431-.855c5.3-4.2,7.936-13.278,10.933-19.142q11.756-23.013,23.513-46.022a10.239,10.239,0,0,0,1.016,2.089c3.454,5.36,10.488,5.485,15.789,2.955L2009,871.127a2.991,2.991,0,0,0,5.763,1.589q10.566-25.733,21.129-51.465a10.1,10.1,0,0,0,3.76,1.81,10.568,10.568,0,0,0,9.328-2.4,26.617,26.617,0,0,0,5.011-5.042c7.85-9.984,11.1-23.2,12.393-35.617.46-4.4.018-9.713-4.7-11.7-4.336-1.828-7.882,1.378-10.256,4.673a104.384,104.384,0,0,0-8.535,14.17,68.268,68.268,0,0,0-12.127,29.085,3.1,3.1,0,0,0,.132,1.545q-5.756,14.022-11.513,28.045,2.739-15.924,5.479-31.85a3.16,3.16,0,0,0-.064-1.382c4.085-5.523,6.195-13.1,7.844-19.275,2.392-8.95,2.922-18.29-2.1-26.426a3.043,3.043,0,0,0-4.694-.6c-9.279,7.6-15.829,17.571-21.478,28.033-6.847,12.675-13.188,25.64-19.741,38.467l-9.97,19.514L1970,861.4c-1.433,2.806-2.914,7.463-5.027,9.8a6.172,6.172,0,0,1-3.315,2.254c-.626-6.6-1.088-13.342.118-19.861,1.576-8.534,6.783-14.313,11.4-21.311,6.66-10.1,9.1-21.946,10.772-33.764a26.234,26.234,0,0,0,1.607-6.585c.646-7.474-5.856-7.984-10.667-4.265a159.885,159.885,0,0,0-27.394,27.427,2.533,2.533,0,0,0-.168.215,189.144,189.144,0,0,0-11.63,16.513c-5.271,8.4-10.884,18.1-14.862,28.251a2.953,2.953,0,0,0-.652.989c-16.352-1.279-32.66-3.063-48.883-5.491-6.74-1.009-15.61-1.561-19.726-7.859-3.69-5.648-2.6-13.466-1.531-19.843,5.368.793,10.807,1.271,16.1,1.923l35.065,4.311c3.809.469,3.774-5.512,0-5.976-17.072-2.1-34.272-3.751-51.271-6.375-7.414-1.145-15.311-2.863-21.222-7.764-5.894-4.886-9.57-13.3-5.919-20.57a3.072,3.072,0,0,0,.334-1.449q42.359,1.54,84.758,1.479c3.844,0,3.85-5.98,0-5.975q-47.038.051-94.044-1.833-23.2-.944-46.377-2.37c-12.335-.773-24.828-1.835-36.035-7.06,5.338-.8,10.244-2.683,13.973-6.248,7.458-7.132,5.95-16.1.621-22.731,24.495,5.8,49.846-.393,74.7-2.331,29.674-2.315,58.865,6.162,88.51,3.98,3.813-.282,3.845-6.26,0-5.977-28.9,2.126-57.364-6.062-86.276-4.142-27.252,1.808-55.174,9.681-81.868.865a22.522,22.522,0,0,0,10.652-9.191,15.778,15.778,0,0,0-.765-17.43,18.392,18.392,0,0,0-7.607-5.974c8.96-2.857,19.257-1.889,28.637-1.476,13.586.6,26.9-1.207,40.154-4.1s26.282-6.654,39.6-9.171a161.2,161.2,0,0,1,42.011-2.036c26.612,1.935,55.519,8.192,81.308-1.8,7.9-3.06,16.919-9.328,17.15-18.71.268-10.872-10.969-17.856-19.224-22.582-12.858-7.358-27.146-11.907-39.719-19.8-11.221-7.045-21.6-18.144-22.7-31.635,7.6,4.051,16.455,6.835,24.883,6.264,5.442-.368,8.608-3.679,8.793-7.733q25.2,11.413,50.412,22.824c19.478,8.819,39.237,17.262,57.856,27.823,18.345,10.4,34.174,23.576,49.476,37.987,14.522,13.676,28.9,27.516,45.579,38.584,65.926,43.743,148.479,45.34,224.576,51.771,40.75,3.443,81.951,8.559,120.534,22.4-.083-2.143-.221-4.275-.392-6.4-70.021-24.354-146.087-20.647-218.968-31.235-3.559-.518-7.117-1.081-10.675-1.669,71.535-16.32,146.9-9.312,217.672-29.129q-.467-2.983-.819-5.971c-74.861,21.173-154.953,12.071-230.211,32.226a3.213,3.213,0,0,0-.757.318c-29.769-5.866-59.02-14.863-85.5-29.833-35.885-20.292-60.578-54.084-94.812-76.492-19.459-12.739-40.862-22.1-61.987-31.661l-65.444-29.63c-6.224-7.075-16.448-11.994-24.9-15.411a90.175,90.175,0,0,0-33.281-6.457c-2.123-.015-3.917,2.606-2.582,4.5a73.679,73.679,0,0,0,24.021,21.884,2.817,2.817,0,0,0,.587,1.277c-.666,21.82,17.478,37.1,35.894,46.241,11.571,5.746,23.927,10.128,34.71,17.363,5.3,3.556,12.809,9.05,10.575,16.449-1.98,6.56-10.031,10.067-15.952,11.918-26.43,8.264-54.636,1.413-81.538,0-26.952-1.41-51.745,6.084-77.773,11.764-15.682,3.422-30.564,4.121-46.536,3.487-10.607-.421-21.549.324-30.466,5.872-9.651-.269-20.4,3.232-28.025,5.935-6.1,2.162-38.533,13.338-27.3,23.425,2.127,1.908,5.189,2.2,7.87,2.682,5.375.976,10.777,1.81,16.184,2.57,6.052.852,12.12,1.568,18.2,2.185q-7.484,1.125-14.911,2.61-6.728,1.351-13.391,3c-4.042,1-9.144,1.677-12.573,4.275-14.475,10.971,16.46,20.185,22.936,21.817a98.219,98.219,0,0,0,19.437,3.1,2.784,2.784,0,0,0,1.382,2.031c11.53,7.048,24.759,9.14,38.03,10.159,15.861,1.217,31.782,1.9,47.674,2.58,2.643.113,5.29.213,7.935.316-6.326,14.827,6.174,28.619,19.874,33.183a65.067,65.067,0,0,0,7.3,1.936c-2.177,14.4-.525,28.672,15.954,32.795,9.422,2.357,19.482,3.165,29.111,4.339,9.7,1.184,19.434,2.139,29.179,2.924a60.285,60.285,0,0,0-2.915,21.45c1.15,17.636,16.784,35.3,34.871,28.18a27.165,27.165,0,0,0,15.561,11.384,26.418,26.418,0,0,0,10.829.668c4.5-.672,8.241-3.124,12.563-4.284,10.164-2.724,12.775,8.513,21.211,11.224,8.242,2.649,14.277-4.277,22-5.125s12.831,7.2,17.914,11.753c5.028,4.506,10.568,7.274,17.471,6.156,8.866-1.438,17.846-6.791,25.653-11.009a209.991,209.991,0,0,0,25.214-16.041,217.619,217.619,0,0,0,44.633-44.523,2.847,2.847,0,0,0,.534-1.138c85.166,7.342,166.985,48.2,245.682,79.031,26.844,10.516,54.072,20.094,81.972,27.379q.55-2.956,1.173-5.871C2385.321,947.951,2288.744,885.326,2177.26,871.232Z" transform="translate(-1675.811 -564.298)" fill="#333"/>
      <path id="Path_133" data-name="Path 133" d="M1768.57,651.545c-1.256.744-2.061,2.794-1.071,4.09a14.21,14.21,0,0,1,3.1,8.1c.182,3.83,6.16,3.852,5.977,0a19.639,19.639,0,0,0-3.92-11.122A3.087,3.087,0,0,0,1768.57,651.545Z" transform="translate(-1617.595 -508.89)" fill="#333"/>
      <path id="Path_134" data-name="Path 134" d="M1770.46,694.611a3.013,3.013,0,0,0,3.676-2.087,16.25,16.25,0,0,0-1.563-10.665c-1.771-3.415-6.93-.4-5.16,3.017a9.476,9.476,0,0,1,.958,6.059A3.072,3.072,0,0,0,1770.46,694.611Z" transform="translate(-1617.599 -490.25)" fill="#333"/>
    </g>
    <g id="Group_17" data-name="Group 17" transform="translate(996 792.045)">
      <path id="Path_135" data-name="Path 135" d="M1514.626,688.771a18.724,18.724,0,0,0,8.855-14.707,16.314,16.314,0,0,0-16.145-17.642,3.287,3.287,0,0,0-5.519,1.944q-3.434,28.3-6.867,56.6a3.054,3.054,0,0,0-.011.55c-2.629,1.352-1,6.116,2.467,5.509,9.5-1.669,26.76-6.356,28.257-18.089C1526.674,695.008,1521.165,690.845,1514.626,688.771Zm2.682-13.7c-1.175,6.494-6.805,10.447-12.908,11.644q1.474-12.133,2.945-24.268C1513.9,662.613,1518.539,668.264,1517.308,675.071Zm-.224,31.479c-4.106,3.989-10.181,6.209-16.012,7.6q1.282-10.588,2.568-21.177c3.3.1,6.724.185,9.84,1.36C1518.87,696.363,1521.668,702.095,1517.084,706.549Z" transform="translate(-1448.958 -655.508)"/>
      <path id="Path_136" data-name="Path 136" d="M1553.89,677.568c-.105-4.753,1.525-20.231-7.848-18.2-3.87.84-5.626,5.633-7.325,8.685q-4.317,7.761-8.188,15.76a328.225,328.225,0,0,0-13.545,32.466c-1.306,3.657,4.51,5.23,5.808,1.6q3.735-10.457,8.191-20.617,8.645,1.179,17.351,1.578.173,7.887.346,15.771c.086,3.87,6.108,3.883,6.022,0Zm-20.353,14.006q5.273-11.428,11.467-22.418c3.474-6.139,2.681.1,2.761,3.783q.153,6.944.305,13.892.067,2.993.132,5.988Q1540.843,692.5,1533.537,691.574Z" transform="translate(-1433.897 -653.115)"/>
      <path id="Path_137" data-name="Path 137" d="M1574.876,699.041c.7-12.474.946-24.963.83-37.455-.036-3.872-6.059-3.882-6.022,0,.082,8.978-.013,17.955-.344,26.927q-.238,6.437-.622,12.867c-.047.818-.284,3.16-.45,5.517l-13.824-45.583a2.929,2.929,0,0,0-3.666-2,3.047,3.047,0,0,0-2.954,2.875,516.007,516.007,0,0,0-.8,53.393c.142,3.864,6.166,3.882,6.023,0q-.7-19.05.016-38.085l11.923,39.312a2.9,2.9,0,0,0,3.453,2.04c.017,0,.03.005.046.005C1576.625,719.057,1574.6,704.033,1574.876,699.041Z" transform="translate(-1414.464 -653.445)"/>
      <path id="Path_138" data-name="Path 138" d="M1606.467,692.038l-15.2-.441c-3.877-.112-3.873,5.91,0,6.022l11.294.327c-1.461,4.925-3.69,9.878-8.716,11.81-8.8,3.384-12.5-8.4-13.651-14.811a41.51,41.51,0,0,1,1.456-20.605c1.733-5.088,9.454-15.691,15.121-8.267,2.32,3.038,7.552.043,5.2-3.04-5.062-6.63-14.252-6.542-20.094-.774-7.953,7.851-9.359,21.713-7.84,32.173,1.311,9.011,5.68,21.761,16.648,22.018,11.372.267,16.344-11.411,18.683-20.6A3.05,3.05,0,0,0,1606.467,692.038Z" transform="translate(-1397.014 -653.891)"/>
      <path id="Path_139" data-name="Path 139" d="M1627.472,678.4c-6.537-.918-13.088-1.581-19.682-1.933-3.873-.208-3.862,5.816,0,6.022,6.051.322,12.08.875,18.081,1.718C1629.663,684.739,1631.3,678.938,1627.472,678.4Z" transform="translate(-1376.598 -641.878)"/>
      <path id="Path_140" data-name="Path 140" d="M1623.489,700.557c-4.537-4.8-9.242-9.4-14.177-13.788-2.9-2.576-6.646,2.139-3.756,4.709,4.529,4.025,8.9,8.218,13.06,12.621C1621.246,706.878,1626.146,703.366,1623.489,700.557Z" transform="translate(-1376.842 -635.66)"/>
      <path id="Path_141" data-name="Path 141" d="M1626.013,662.078c-6.418,1.545-12.755,3.329-19.019,5.419-3.679,1.228-1.46,6.828,2.208,5.6,5.747-1.919,11.559-3.614,17.452-5.031C1630.376,667.175,1629.772,661.176,1626.013,662.078Z" transform="translate(-1376.457 -651.294)"/>
      <path id="Path_142" data-name="Path 142" d="M1468.749,675.074c6.537-.919,13.088-1.583,19.681-1.934,3.873-.206,3.862,5.816,0,6.022-6.05.322-12.079.875-18.08,1.718C1466.559,681.414,1464.92,675.611,1468.749,675.074Z" transform="translate(-1466.567 -644.042)"/>
      <path id="Path_143" data-name="Path 143" d="M1470.752,697.231c4.539-4.8,9.244-9.4,14.179-13.787,2.9-2.578,6.646,2.137,3.757,4.707q-6.794,6.038-13.061,12.621C1472.995,703.551,1468.1,700.038,1470.752,697.231Z" transform="translate(-1464.343 -637.823)"/>
      <path id="Path_144" data-name="Path 144" d="M1469.927,658.753c6.419,1.543,12.757,3.327,19.02,5.418,3.679,1.228,1.459,6.826-2.209,5.6-5.748-1.918-11.56-3.615-17.451-5.031C1465.566,663.847,1466.168,657.848,1469.927,658.753Z" transform="translate(-1466.426 -653.457)"/>
    </g>
  </g>
</svg>
