<svg xmlns="http://www.w3.org/2000/svg" width="47.841" height="29.992" viewBox="0 0 47.841 29.992">
  <path id="Icon_awesome-behance" data-name="Icon awesome-behance" d="M19.269,18.74a6.3,6.3,0,0,0,4.02-6.146c0-5.864-4.369-7.292-9.41-7.292H0V34.737H14.269c5.349,0,10.374-2.566,10.374-8.547,0-3.7-1.752-6.429-5.374-7.45ZM6.47,10.326h6.071c2.334,0,4.435.656,4.435,3.364,0,2.5-1.636,3.5-3.945,3.5H6.47V10.326Zm6.919,19.41H6.47V21.631h7.052c2.849,0,4.651,1.188,4.651,4.2C18.173,28.807,16.022,29.737,13.389,29.737ZM43.165,9.745H31.229v-2.9H43.165v2.9Zm4.676,14.643c0-6.3-3.688-11.562-10.374-11.562-6.5,0-10.905,4.884-10.905,11.279,0,6.636,4.178,11.188,10.905,11.188,5.091,0,8.389-2.292,9.975-7.168H42.276c-.556,1.819-2.849,2.782-4.626,2.782-3.43,0-5.233-2.01-5.233-5.424H47.791C47.816,25.136,47.841,24.762,47.841,24.388ZM32.425,21.8a4.575,4.575,0,0,1,4.859-4.552c2.94,0,4.419,1.728,4.668,4.552Z" transform="translate(0 -5.302)"/>
</svg>
