<svg xmlns="http://www.w3.org/2000/svg" width="54.179" height="33.965" viewBox="0 0 54.179 33.965">
  <path id="Icon_awesome-behance" data-name="Icon awesome-behance" d="M21.822,20.521c2.991-1.43,4.553-3.593,4.553-6.961,0-6.641-4.948-8.259-10.657-8.259H0V38.637H16.16c6.058,0,11.748-2.906,11.748-9.679,0-4.186-1.985-7.28-6.086-8.437ZM7.327,10.992H14.2c2.643,0,5.023.743,5.023,3.809,0,2.831-1.853,3.969-4.468,3.969H7.327V10.992Zm7.835,21.982H7.327v-9.18h7.986c3.226,0,5.267,1.345,5.267,4.759C20.581,31.921,18.144,32.974,15.163,32.974Zm33.721-22.64H35.367V7.051H48.883v3.283Zm5.3,16.583c0-7.139-4.176-13.093-11.748-13.093-7.356,0-12.35,5.531-12.35,12.773,0,7.515,4.731,12.67,12.35,12.67,5.766,0,9.5-2.6,11.3-8.117H47.877c-.63,2.06-3.226,3.151-5.239,3.151-3.885,0-5.926-2.276-5.926-6.142H54.123C54.151,27.763,54.179,27.34,54.179,26.917ZM36.721,23.982a5.181,5.181,0,0,1,5.5-5.155c3.33,0,5,1.956,5.286,5.155Z" transform="translate(0 -5.302)"/>
</svg>
