<?xml version="1.0" encoding="utf-8"?>
<!-- Generator: Adobe Illustrator 23.0.4, SVG Export Plug-In . SVG Version: 6.00 Build 0)  -->
<svg version="1.1" id="Layer_1" xmlns="http://www.w3.org/2000/svg" xmlns:xlink="http://www.w3.org/1999/xlink" x="0px" y="0px"
	 viewBox="0 0 284.7 51" style="enable-background:new 0 0 284.7 51;" xml:space="preserve">
<style type="text/css">
	.st0{font-family:'Avenir-Light';}
	.st1{font-size:37px;}
	.st2{font-family:'Neonoir-Bold';}
</style>
<g id="Group_352" transform="translate(-839.344 -975)">
	<g id="Group_3" transform="translate(-33 -25.76)">
		<path id="Icon_metro-copyright" d="M891.1,1029.8v1.8c0,0.5-0.2,1.1-0.6,1.4c-0.4,0.4-1,0.8-1.5,1c-0.6,0.2-1.3,0.4-1.9,0.5
			c-0.6,0.1-1.3,0.2-1.9,0.2c-2.1,0.1-4.1-0.8-5.6-2.3c-1.5-1.5-2.3-3.5-2.2-5.6c-0.1-4.2,3.2-7.6,7.4-7.7c0.1,0,0.2,0,0.3,0
			c0.4,0,0.8,0,1.2,0.1c0.5,0.1,1,0.2,1.5,0.3c0.5,0.1,1,0.3,1.5,0.6c0.4,0.2,0.8,0.5,1.1,0.9c0.3,0.4,0.5,0.8,0.5,1.3v1.8
			c0,0.1-0.1,0.2-0.2,0.3c0,0,0,0-0.1,0h-1.9c-0.1,0-0.2-0.1-0.3-0.2c0,0,0,0,0-0.1v-1.1c0-0.5-0.4-0.8-1.1-1.1
			c-0.7-0.3-1.5-0.4-2.2-0.4c-1.4-0.1-2.7,0.5-3.7,1.5c-1,1-1.5,2.4-1.4,3.9c-0.1,1.5,0.5,3,1.5,4.1c1,1.1,2.4,1.6,3.8,1.6
			c0.8,0,1.5-0.1,2.2-0.4c0.8-0.3,1.1-0.6,1.1-1.1v-1.1c0-0.1,0-0.1,0.1-0.2c0,0,0.1-0.1,0.2-0.1h1.9c0.1,0,0.1,0,0.2,0.1
			C891,1029.6,891.1,1029.7,891.1,1029.8L891.1,1029.8z M884.8,1016.4c-1.4,0-2.8,0.3-4,0.8c-2.5,1-4.5,3-5.5,5.5
			c-1.1,2.6-1.1,5.5,0,8.1c1,2.5,3,4.5,5.5,5.5c2.6,1.1,5.5,1.1,8.1,0c2.5-1,4.5-3,5.5-5.5c1.1-2.6,1.1-5.5,0-8.1
			c-1-2.5-3-4.5-5.5-5.5C887.6,1016.7,886.2,1016.4,884.8,1016.4L884.8,1016.4z M897.3,1026.9c0,2.2-0.6,4.4-1.7,6.3
			c-1.1,1.9-2.7,3.5-4.5,4.6c-1.9,1.1-4.1,1.7-6.3,1.7c-2.2,0-4.4-0.6-6.3-1.7c-1.9-1.1-3.5-2.7-4.5-4.6c-1.1-1.9-1.7-4.1-1.7-6.3
			c0-2.2,0.6-4.4,1.7-6.3c1.1-1.9,2.7-3.5,4.6-4.6c1.9-1.1,4.1-1.7,6.3-1.7c2.2,0,4.4,0.6,6.3,1.7c1.9,1.1,3.5,2.7,4.5,4.5
			C896.8,1022.5,897.4,1024.7,897.3,1026.9L897.3,1026.9z"/>
		<text transform="matrix(1 0 0 1 911.52 1037.76)" class="st0 st1">2020</text>
		<text transform="matrix(1 0 0 1 1007.667 1035.76)" class="st2 st1">tracyux.com</text>
	</g>
</g>
</svg>
