<svg xmlns="http://www.w3.org/2000/svg" width="241.656" height="51" viewBox="0 0 241.656 51">
  <g id="Group_3" data-name="Group 3" transform="translate(-872.344 -1000.76)">
    <path id="Icon_metro-copyright" data-name="Icon metro-copyright" d="M23.493,19.809v1.775a2.062,2.062,0,0,1-.594,1.449,3.948,3.948,0,0,1-1.53.985,11.191,11.191,0,0,1-1.921.529,10.687,10.687,0,0,1-1.913.179,7.526,7.526,0,0,1-5.576-2.263,7.69,7.69,0,0,1-2.239-5.633A7.566,7.566,0,0,1,17.453,9.1a11.489,11.489,0,0,1,1.229.073,10.505,10.505,0,0,1,1.514.293,7.766,7.766,0,0,1,1.506.554,3.242,3.242,0,0,1,1.123.92,2.093,2.093,0,0,1,.456,1.319v1.775a.23.23,0,0,1-.261.26H21.1a.23.23,0,0,1-.26-.26v-1.14q0-.7-1.066-1.1a6.337,6.337,0,0,0-2.239-.4,4.947,4.947,0,0,0-3.72,1.49,5.329,5.329,0,0,0-1.441,3.867,5.735,5.735,0,0,0,1.49,4.062,4.96,4.96,0,0,0,3.8,1.6,6.9,6.9,0,0,0,2.247-.391q1.14-.391,1.14-1.075v-1.14a.254.254,0,0,1,.073-.187.234.234,0,0,1,.171-.073h1.937a.262.262,0,0,1,.179.073.241.241,0,0,1,.081.187ZM17.274,6.491a10.128,10.128,0,0,0-4.046.83,10.276,10.276,0,0,0-5.544,5.544,10.272,10.272,0,0,0,0,8.092A10.276,10.276,0,0,0,13.228,26.5a10.272,10.272,0,0,0,8.092,0,10.276,10.276,0,0,0,5.544-5.544,10.272,10.272,0,0,0,0-8.092,10.276,10.276,0,0,0-5.544-5.544,10.128,10.128,0,0,0-4.046-.83Zm12.5,10.42A12.231,12.231,0,0,1,28.1,23.187a12.447,12.447,0,0,1-4.55,4.55,12.232,12.232,0,0,1-6.276,1.677A12.232,12.232,0,0,1,11,27.737a12.447,12.447,0,0,1-4.55-4.55A12.232,12.232,0,0,1,4.77,16.911a12.232,12.232,0,0,1,1.677-6.276A12.448,12.448,0,0,1,11,6.084a12.232,12.232,0,0,1,6.276-1.677A12.232,12.232,0,0,1,23.55,6.084a12.447,12.447,0,0,1,4.55,4.55A12.231,12.231,0,0,1,29.777,16.911Z" transform="translate(867.574 1009.951)"/>
    <text id="_2020" data-name="2020" transform="translate(950 1037.76)" font-size="37" font-family="Avenir-Light, Avenir" font-weight="300"><tspan x="-38.48" y="0">2020</tspan></text>
    <text id="tracy." transform="translate(1061 1036.76)" font-size="37" font-family="Neonoir-Bold, Neonoir" font-weight="700"><tspan x="-52.336" y="0">tracy.</tspan></text>
  </g>
</svg>
