<svg xmlns="http://www.w3.org/2000/svg" width="30.152" height="30.151" viewBox="0 0 30.152 30.151">
  <path id="Icon_awesome-linkedin-in" data-name="Icon awesome-linkedin-in" d="M6.749,30.152H.5V10.022H6.749ZM3.62,7.276a3.637,3.637,0,1,1,3.62-3.655A3.651,3.651,0,0,1,3.62,7.276ZM30.145,30.152H23.908v-9.8c0-2.335-.047-5.33-3.25-5.33-3.25,0-3.748,2.537-3.748,5.162v9.968H10.665V10.022h6v2.746h.087a6.569,6.569,0,0,1,5.915-3.251c6.327,0,7.49,4.166,7.49,9.577V30.152Z" transform="translate(0 -0.001)"/>
</svg>
