<?xml version="1.0" standalone="no"?>
<!DOCTYPE svg PUBLIC "-//W3C//DTD SVG 20010904//EN"
 "http://www.w3.org/TR/2001/REC-SVG-20010904/DTD/svg10.dtd">
<svg version="1.0" xmlns="http://www.w3.org/2000/svg"
 width="1797.000000pt" height="1797.000000pt" viewBox="0 0 1797.000000 1797.000000"
 preserveAspectRatio="xMidYMid meet">
<metadata>
Created by potrace 1.11, written by Peter Selinger 2001-2013
</metadata>
<g transform="translate(0.000000,1797.000000) scale(0.100000,-0.100000)"
fill="#000000" stroke="none">
<path d="M7587 17964 c-1 -1 -57 -4 -123 -8 -67 -3 -128 -8 -135 -10 -8 -3
-39 -7 -69 -10 -52 -5 -202 -30 -245 -40 -11 -2 -42 -9 -70 -16 -370 -83 -780
-283 -1090 -531 -107 -85 -329 -306 -406 -404 -190 -242 -320 -472 -403 -715
-20 -58 -39 -112 -42 -120 -4 -9 -12 8 -20 40 -56 213 -206 337 -414 344 -117
4 -224 -27 -530 -152 -667 -272 -988 -459 -1282 -743 -304 -296 -472 -629
-514 -1024 -17 -157 -6 -451 22 -610 2 -10 6 -37 10 -59 10 -67 51 -275 74
-371 12 -49 23 -97 25 -105 2 -8 15 -64 30 -125 47 -195 110 -492 121 -570 3
-27 12 -85 18 -127 15 -92 13 -98 -121 -357 -85 -163 -85 -164 -65 -183 15
-16 24 -18 39 -10 21 12 115 111 139 147 9 14 19 25 23 25 12 0 -1 -195 -19
-285 -5 -27 -12 -61 -14 -75 -33 -187 -91 -368 -259 -815 -161 -428 -207 -582
-252 -840 -20 -116 -26 -372 -11 -520 18 -189 84 -446 163 -629 19 -44 46
-115 60 -156 94 -280 264 -595 505 -936 57 -81 112 -159 123 -175 11 -15 89
-120 172 -233 316 -424 459 -657 566 -916 35 -86 73 -201 82 -249 3 -14 7 -37
10 -51 18 -89 20 -83 -103 -271 -133 -203 -126 -192 -208 -331 -58 -96 -164
-299 -164 -312 0 -4 -9 -25 -20 -49 -28 -61 -74 -207 -98 -317 -58 -255 -47
-476 32 -697 l26 -71 -26 -104 c-28 -111 -28 -110 -39 -178 -4 -25 -9 -54 -11
-64 -12 -64 -30 -223 -39 -346 -6 -80 -6 -392 0 -398 2 -3 -4 -19 -14 -36 -48
-80 -154 -478 -176 -661 -3 -27 -8 -61 -10 -75 -27 -156 -27 -573 -1 -705 9
-45 49 -135 75 -173 114 -156 313 -123 370 62 15 48 18 85 16 162 -2 54 -6
113 -9 129 -3 17 -12 71 -20 120 -9 50 -18 101 -21 115 -3 14 -8 39 -10 55 -3
17 -13 64 -21 105 -8 41 -17 86 -19 100 -2 14 -8 54 -14 90 -5 36 -13 85 -16
110 -3 25 -8 56 -10 70 -2 14 -7 55 -10 92 -3 37 -7 75 -9 85 -31 160 -28 840
5 1015 4 26 11 69 14 95 9 68 59 275 88 363 92 280 223 525 405 759 374 479
930 839 1567 1014 88 25 307 72 382 82 85 13 106 15 151 20 26 3 61 7 77 10
173 24 614 24 825 0 19 -3 58 -7 85 -10 28 -3 64 -7 80 -10 17 -3 47 -7 68
-10 87 -12 119 -18 257 -45 209 -43 344 -75 810 -194 359 -91 597 -147 730
-171 83 -14 279 -45 320 -50 25 -3 59 -7 75 -9 182 -26 641 -27 772 -2 12 3
43 7 70 11 26 4 59 9 73 11 14 3 39 8 55 11 17 2 83 20 148 39 198 57 372 136
535 243 52 34 91 58 89 54 -5 -8 -13 -62 -22 -153 -3 -30 -8 -64 -10 -75 -26
-134 -27 -747 -1 -905 3 -14 7 -47 11 -75 11 -99 58 -311 96 -444 96 -328 239
-616 436 -879 40 -53 61 -72 78 -72 12 0 26 7 29 16 4 9 3 83 -1 163 -13 259
-6 790 11 891 3 14 7 64 11 112 3 49 8 96 9 105 2 10 7 45 10 78 4 33 9 71 11
85 5 33 34 216 41 259 3 18 8 43 10 55 3 11 12 57 20 101 9 44 31 143 50 220
19 77 36 148 39 158 2 10 7 27 10 37 3 10 8 27 10 37 9 42 68 229 121 383 186
542 404 980 750 1505 151 230 525 745 536 738 7 -4 2 -239 -6 -292 -3 -14 -7
-75 -11 -135 -4 -60 -8 -116 -10 -125 -1 -9 -6 -61 -10 -116 -4 -55 -8 -106
-10 -115 -1 -8 -6 -51 -9 -95 -4 -44 -9 -91 -11 -105 -2 -14 -9 -72 -15 -130
-6 -58 -13 -121 -15 -140 -3 -19 -11 -93 -20 -165 -8 -71 -18 -146 -21 -165
-2 -19 -14 -100 -24 -180 -11 -80 -22 -154 -24 -166 -2 -12 -7 -45 -11 -74 -4
-29 -9 -62 -11 -74 -2 -12 -6 -35 -9 -53 -2 -18 -8 -58 -14 -90 -5 -32 -12
-74 -15 -93 -3 -19 -10 -57 -15 -85 -5 -27 -12 -68 -15 -90 -4 -23 -9 -52 -11
-65 -3 -14 -18 -97 -35 -185 -16 -88 -36 -191 -44 -230 -8 -38 -18 -85 -21
-104 -16 -90 -132 -592 -185 -801 -33 -129 -63 -245 -65 -257 -19 -82 -130
-449 -200 -658 -267 -798 -596 -1418 -1033 -1945 -100 -120 -352 -377 -461
-470 -226 -193 -478 -363 -716 -483 -158 -79 -465 -196 -558 -213 -17 -3 -33
-7 -35 -9 -4 -4 -155 47 -212 72 -137 60 -347 169 -530 275 -331 192 -334 194
-525 288 -489 240 -924 293 -1080 130 -32 -33 -55 -108 -49 -160 17 -146 236
-345 557 -506 212 -107 536 -206 747 -229 30 -4 61 -8 69 -11 69 -22 576 -23
686 0 11 2 47 7 80 11 32 3 62 8 65 10 3 2 21 6 40 9 19 3 46 8 60 11 14 3 39
8 56 11 16 3 57 -1 90 -10 149 -38 307 -55 484 -51 85 2 164 6 175 8 11 3 45
8 75 12 30 3 71 10 90 15 19 5 49 11 65 14 54 9 198 52 300 91 498 187 979
578 1395 1130 109 145 238 340 325 490 66 115 220 414 254 495 13 30 35 80 48
110 36 82 38 88 76 185 133 341 304 934 342 1185 2 14 11 59 19 100 8 41 17
95 21 120 4 25 10 65 15 90 5 25 18 117 30 205 11 88 22 174 25 190 2 17 7 64
10 105 4 41 8 86 10 100 2 14 7 68 11 120 3 52 8 111 9 130 14 177 20 407 20
810 0 465 -8 720 -30 1065 -3 50 -8 122 -10 160 -9 135 -17 235 -30 395 -3 30
-7 87 -10 125 -5 67 -10 122 -20 230 -2 28 -8 82 -12 120 -11 97 -7 413 5 428
34 42 155 253 212 372 96 199 162 393 185 546 4 24 8 46 10 49 4 6 18 158 18
200 1 50 -14 151 -28 184 -32 76 -110 135 -181 136 -82 0 -181 -65 -222 -147
-34 -68 -43 -135 -47 -338 -8 -406 -18 -722 -29 -942 -1 -23 -10 -50 -19 -61
-9 -10 -17 -22 -17 -26 0 -11 -121 -183 -348 -495 -317 -436 -461 -662 -632
-996 -252 -494 -447 -1033 -569 -1575 -22 -96 -42 -188 -44 -205 -3 -16 -14
-82 -26 -145 -21 -118 -31 -182 -36 -235 -3 -27 -7 -56 -20 -160 -10 -83 -15
-141 -31 -355 -8 -103 -8 -665 -1 -717 2 -18 3 -33 0 -33 -10 0 -142 215 -197
322 -121 237 -222 540 -260 783 -18 113 -26 164 -31 195 -27 185 -27 649 -1
895 10 89 18 162 21 177 2 9 6 38 10 65 22 167 98 519 152 708 77 270 203 657
292 900 9 23 27 39 74 63 77 40 85 44 177 113 272 203 456 499 532 855 32 152
32 420 0 570 -22 102 -78 277 -112 346 -18 37 -18 40 5 140 23 103 90 421 99
468 2 14 7 36 10 50 3 14 8 36 10 50 2 14 12 61 21 105 9 44 21 103 25 130 8
45 32 171 44 235 7 37 44 259 51 305 3 23 7 50 9 60 4 26 17 112 22 150 2 17
6 46 8 65 3 19 8 53 10 75 3 22 10 76 15 120 6 44 12 107 15 140 5 62 14 159
21 230 19 179 26 722 12 965 -7 130 -10 166 -23 275 -3 28 -7 64 -9 80 -8 76
-17 143 -25 177 -17 82 7 42 48 -79 238 -701 520 -1384 797 -1928 278 -546
556 -989 996 -1585 631 -855 837 -1195 1002 -1650 61 -169 124 -412 142 -553
16 -129 20 -195 20 -362 0 -170 -4 -237 -20 -355 -2 -19 -7 -57 -10 -85 -4
-27 -8 -57 -10 -65 -2 -8 -7 -31 -10 -50 -12 -71 -55 -259 -85 -375 -36 -137
-38 -146 -116 -390 -32 -99 -59 -184 -60 -190 -2 -8 -202 -591 -217 -635 -9
-24 -541 -1635 -542 -1640 -5 -25 -478 -1444 -512 -1535 -179 -482 -363 -745
-648 -928 -92 -59 -180 -102 -350 -172 -141 -58 -377 -168 -398 -186 -7 -5
-31 -22 -55 -37 -121 -79 -233 -206 -273 -310 -29 -77 -30 -182 -1 -237 59
-116 183 -147 317 -79 71 36 416 309 625 495 36 32 74 66 86 76 108 93 223
203 419 398 257 256 302 303 465 490 63 72 116 132 120 135 18 16 265 330 369
470 164 220 491 710 491 735 0 3 15 28 33 57 19 29 53 89 77 133 23 44 46 85
51 90 14 19 216 427 259 525 82 185 213 513 225 560 2 8 20 62 40 120 79 227
153 497 210 765 19 88 37 176 40 195 3 19 10 58 15 85 5 28 12 70 15 95 3 25
8 52 10 60 2 8 7 40 10 70 3 30 8 66 10 80 3 14 7 52 10 85 3 33 8 83 10 110
31 287 36 773 10 1070 -2 22 -6 76 -10 120 -3 44 -8 94 -10 110 -5 33 -14 110
-20 169 -3 21 -9 64 -14 95 -6 31 -13 72 -16 91 -3 19 -10 58 -15 85 -5 28
-13 68 -16 89 -3 22 -10 49 -14 62 -9 22 -7 114 4 254 8 89 12 170 21 351 4
74 9 159 11 189 5 78 5 619 -1 715 -2 44 -7 112 -10 150 -4 39 -8 88 -10 110
-12 153 -37 325 -81 545 -18 89 -73 287 -114 410 -167 501 -418 890 -806 1250
-201 186 -315 270 -847 627 -194 129 -363 244 -377 255 -14 10 -77 58 -140
105 -501 377 -793 740 -940 1168 -211 612 -453 1033 -771 1341 -52 51 -116
114 -144 141 -27 27 -95 118 -150 203 -373 574 -858 1107 -1375 1510 -384 300
-831 543 -1255 684 -125 42 -275 85 -345 100 -214 45 -295 60 -395 71 -33 4
-71 9 -85 11 -49 8 -426 23 -433 18z m334 -88 c174 -15 280 -30 434 -60 681
-136 1348 -479 1944 -1001 179 -156 364 -343 571 -575 183 -206 501 -638 646
-877 10 -17 42 -69 70 -115 119 -193 303 -558 379 -753 26 -66 51 -129 56
-140 16 -37 78 -233 113 -357 46 -164 103 -425 121 -556 2 -15 6 -44 9 -64 11
-72 15 -103 21 -173 4 -38 8 -80 10 -93 26 -161 26 -1002 0 -1165 -2 -12 -6
-60 -10 -107 -3 -47 -8 -98 -10 -115 -2 -16 -7 -57 -10 -90 -3 -33 -8 -69 -10
-80 -2 -11 -7 -47 -10 -80 -3 -33 -8 -67 -10 -75 -2 -8 -6 -37 -10 -65 -7 -59
-43 -299 -50 -335 -8 -39 -37 -203 -40 -225 -8 -61 -115 -595 -171 -859 -25
-115 -29 -127 -41 -110 -8 10 -41 57 -75 104 -68 95 -188 218 -261 268 -153
106 -319 141 -451 97 -26 -8 -34 -9 -22 -2 225 141 386 410 454 757 34 169 47
374 31 465 -4 22 -10 60 -14 85 -8 52 -49 177 -77 235 -11 22 -40 67 -63 101
l-43 60 96 18 c101 19 246 66 345 111 46 21 57 31 57 50 0 46 -29 47 -127 5
-192 -83 -373 -117 -594 -115 -154 2 -196 7 -335 40 -175 41 -341 115 -494
219 -104 71 -279 250 -381 392 -86 118 -86 120 -98 204 -49 359 -120 585 -246
775 -171 258 -435 402 -791 431 -143 12 -413 7 -564 -11 -42 -5 -191 -16 -280
-21 -469 -26 -739 51 -1029 294 -67 57 -157 146 -428 429 -290 303 -480 439
-730 522 -136 46 -233 62 -393 66 -155 4 -266 -8 -396 -44 -21 -6 -40 -8 -42
-6 -6 5 52 69 188 210 287 296 499 455 1059 794 88 53 349 229 425 286 43 33
98 74 121 91 76 57 176 165 197 210 42 96 -21 167 -143 159 -162 -11 -434
-125 -655 -274 -168 -113 -297 -224 -544 -467 -118 -117 -226 -222 -240 -234
-36 -32 -214 -195 -291 -267 -57 -55 -90 -79 -76 -55 3 4 8 25 11 47 4 22 9
54 12 70 12 73 71 269 111 370 169 422 467 801 857 1089 233 173 524 316 823
405 111 33 313 76 408 86 33 4 63 9 66 11 3 1 59 6 125 10 65 3 120 7 121 8 5
4 304 -2 374 -8z m-1046 -879 c26 -20 14 -54 -37 -108 -121 -127 -335 -280
-796 -568 -432 -269 -573 -371 -776 -561 -114 -106 -241 -237 -360 -373 -38
-42 -70 -76 -72 -74 -4 4 29 112 50 159 37 86 149 212 336 378 47 41 195 184
330 317 135 134 261 257 280 274 350 318 565 449 884 544 93 28 135 31 161 12z
m-2230 -591 c87 -16 178 -93 225 -190 30 -62 35 -80 49 -172 31 -213 -76 -464
-295 -690 -105 -109 -256 -232 -293 -239 -36 -7 -63 29 -56 73 14 92 69 175
239 357 35 38 103 150 118 196 18 53 21 194 6 242 -55 176 -176 292 -349 336
l-72 18 69 24 c138 46 265 62 359 45z m-357 -170 c181 -48 307 -228 280 -405
-15 -99 -59 -169 -238 -376 -82 -95 -140 -211 -140 -279 0 -33 7 -62 20 -83
22 -36 21 -37 -52 -47 -21 -3 -75 -12 -120 -20 -46 -8 -99 -17 -118 -21 -67
-11 -218 -54 -280 -79 -243 -99 -423 -308 -541 -628 -25 -69 -92 -293 -104
-348 -52 -241 -146 -635 -170 -710 -83 -265 -192 -560 -205 -560 -4 0 -10 17
-14 38 -30 179 -70 371 -150 707 -30 127 -56 244 -59 260 -3 17 -12 64 -21
105 -19 93 -34 180 -41 245 -4 28 -9 61 -11 75 -10 48 -12 385 -3 455 14 115
18 136 44 233 134 507 515 909 1165 1233 178 88 385 179 409 179 10 0 38 7 62
16 24 8 64 18 89 21 25 3 46 7 48 8 6 6 100 -7 150 -19z m467 -883 c-8 -35 -9
-35 -29 -27 -14 5 -13 9 6 30 29 30 32 30 23 -3z m755 -49 c41 -4 77 -8 80 -9
3 -1 31 -7 63 -14 201 -44 397 -148 598 -318 44 -37 148 -140 232 -228 382
-400 516 -518 695 -608 188 -95 360 -131 627 -131 158 -1 385 9 436 19 131 25
583 26 705 1 332 -68 538 -221 679 -506 60 -119 157 -451 154 -526 0 -19 0
-19 -12 0 -47 74 -200 269 -269 342 -203 215 -446 335 -728 362 -126 12 -572
2 -654 -14 -33 -7 -327 -7 -366 0 -19 3 -52 8 -73 11 -200 27 -450 131 -607
252 -150 115 -261 211 -421 364 -417 400 -695 575 -999 633 -69 14 -317 15
-337 3 -16 -10 -162 -22 -253 -21 -114 2 -189 27 -243 80 -47 48 -63 87 -45
112 20 29 73 88 86 96 58 35 287 93 407 103 39 3 71 6 72 7 3 3 92 -2 173 -10z
m6358 -313 c1 -14 12 -59 25 -99 14 -41 21 -70 17 -65 -4 4 -42 76 -85 158
-43 83 -82 157 -87 165 -6 8 21 -18 59 -59 48 -50 70 -82 71 -100z m-7128 -27
c57 -75 170 -123 297 -128 75 -3 105 0 248 21 28 4 106 8 175 8 245 -1 458
-79 720 -265 52 -38 104 -76 115 -87 12 -10 54 -47 95 -83 41 -36 82 -72 90
-80 88 -83 281 -260 358 -328 294 -257 556 -387 847 -420 80 -9 400 -7 550 4
149 10 481 11 555 2 379 -49 617 -228 949 -715 50 -73 62 -98 57 -117 -13 -52
-130 -209 -239 -318 -471 -479 -988 -795 -1523 -934 -74 -19 -150 -36 -169
-39 -19 -2 -60 -9 -92 -14 -192 -35 -479 -33 -708 4 -43 7 -208 46 -213 50 -2
2 18 10 45 19 95 33 164 102 197 200 27 79 -3 95 -98 52 -59 -27 -222 -86
-238 -86 -5 0 13 15 40 34 92 61 145 139 155 225 3 29 0 47 -10 57 -16 16 -53
19 -53 5 0 -13 -116 -99 -172 -127 -26 -13 -119 -47 -205 -75 -156 -50 -257
-88 -443 -168 l-95 -40 -125 5 c-209 10 -272 8 -340 -10 -65 -17 -212 -86
-409 -191 -115 -62 -138 -66 -132 -20 14 120 106 249 244 344 91 62 297 158
582 271 72 28 144 57 160 65 17 7 93 39 170 70 77 31 235 97 350 145 116 48
268 111 338 139 152 62 226 100 286 149 42 35 103 118 107 148 3 20 -26 46
-45 41 -9 -3 -62 -21 -118 -41 -57 -19 -122 -38 -145 -41 -23 -4 -45 -8 -49
-10 -6 -4 -101 -20 -174 -29 -47 -6 -131 -14 -230 -21 -106 -8 -186 -15 -225
-20 -19 -3 -57 -7 -85 -10 -46 -4 -100 -12 -149 -21 -179 -33 -410 -125 -631
-252 -92 -53 -449 -284 -506 -328 -95 -72 -158 -144 -197 -223 -31 -64 -37
-84 -37 -145 0 -59 5 -81 29 -131 35 -70 109 -146 189 -193 59 -36 86 -44 102
-32 6 4 30 10 54 14 54 8 156 55 281 128 123 72 174 95 268 119 85 22 253 25
217 5 -68 -40 -277 -194 -305 -227 -3 -3 -54 -45 -115 -93 -152 -121 -205
-179 -205 -222 0 -57 28 -67 159 -59 91 6 111 5 111 -6 -1 -37 -55 -194 -94
-271 -42 -84 -44 -89 -27 -109 l16 -21 55 22 c30 11 64 25 75 30 34 16 218 87
255 98 19 6 70 14 113 17 43 4 88 8 100 10 12 2 45 6 72 10 241 30 480 113
649 226 109 73 276 261 276 310 0 22 -32 41 -54 33 -9 -3 -30 -29 -47 -57 -78
-126 -264 -269 -442 -337 -88 -35 -298 -90 -337 -90 -14 1 80 43 208 95 319
129 363 154 438 250 55 71 110 212 113 289 1 14 6 17 24 13 45 -11 63 -15 107
-27 25 -7 54 -14 65 -16 11 -2 31 -6 45 -9 14 -3 42 -8 64 -11 21 -3 46 -7 55
-9 85 -16 333 -22 472 -11 469 37 930 206 1394 511 334 220 752 613 833 782 9
18 23 33 31 32 9 0 45 -41 81 -92 95 -133 273 -308 395 -388 91 -59 268 -149
294 -149 21 0 11 -19 -22 -38 -91 -57 -199 -200 -236 -316 -31 -98 -34 -121
-16 -140 33 -33 61 -14 70 50 9 61 80 197 136 258 28 30 78 74 112 96 67 44
74 45 192 20 28 -6 61 -13 75 -15 38 -7 136 -17 198 -19 31 -1 57 -7 60 -14 6
-18 -66 -190 -121 -287 -67 -118 -148 -232 -263 -369 -135 -159 -170 -241
-144 -335 23 -88 100 -141 211 -149 98 -6 159 17 230 88 100 100 128 193 144
485 3 55 8 123 10 150 2 28 6 95 10 150 4 55 8 113 10 130 2 16 5 55 6 87 1
32 6 58 10 58 16 0 102 -116 133 -179 70 -139 95 -265 91 -450 -3 -115 -7
-160 -21 -231 -2 -14 -7 -38 -10 -55 -40 -229 -161 -475 -296 -603 -121 -115
-269 -176 -298 -123 -15 28 -15 58 0 126 16 73 8 124 -26 164 -63 75 -194 33
-240 -78 -16 -38 -19 -128 -5 -150 8 -12 -8 -22 -77 -51 -367 -152 -672 -450
-875 -855 -43 -84 -111 -266 -121 -321 -39 -208 -47 -317 -32 -449 35 -324
186 -606 438 -816 l58 -48 -203 -177 c-111 -98 -227 -200 -257 -228 -49 -45
-135 -122 -210 -186 -14 -12 -41 -36 -60 -54 -19 -17 -125 -110 -235 -206
-110 -96 -202 -177 -205 -180 -3 -3 -36 -32 -75 -65 -38 -33 -72 -62 -75 -65
-3 -3 -34 -30 -70 -60 -36 -30 -67 -57 -70 -60 -3 -3 -48 -41 -100 -85 -52
-44 -97 -82 -100 -85 -3 -3 -100 -85 -216 -182 l-212 -175 -208 53 c-183 47
-428 105 -504 119 -111 21 -304 55 -345 60 -27 4 -61 8 -75 10 -14 2 -56 7
-95 11 -38 3 -79 8 -90 10 -16 3 -194 11 -401 18 l-42 1 -51 99 c-28 54 -51
100 -51 101 0 2 19 6 42 10 94 16 251 101 341 184 77 71 189 245 245 381 13
30 27 64 32 75 5 11 30 76 55 145 70 188 99 244 145 289 30 29 40 45 35 60 -9
28 -42 32 -83 11 -57 -30 -96 -24 -490 76 -74 18 -218 60 -320 93 -353 113
-393 120 -505 94 -78 -18 -124 -43 -191 -104 -54 -49 -59 -51 -112 -51 -31 0
-81 -7 -111 -15 -31 -8 -59 -11 -64 -6 -28 28 -30 143 -5 283 26 149 11 253
-55 381 -7 14 1 19 51 28 76 13 172 63 213 112 29 33 38 37 94 43 233 23 385
167 371 349 -6 74 -25 115 -76 164 -73 71 -182 95 -182 39 0 -28 18 -46 46
-46 35 0 87 -42 112 -90 24 -49 28 -94 11 -154 -15 -55 -100 -138 -164 -160
-62 -21 -185 -33 -185 -18 0 13 -31 31 -61 37 -63 12 -237 -78 -318 -164 l-43
-46 -158 -2 c-124 -1 -174 2 -228 16 -139 36 -223 103 -263 210 -32 86 -20
153 63 346 98 227 182 561 203 810 15 163 19 364 10 440 -2 22 -7 65 -10 95
-9 78 -22 136 -47 205 -64 177 -143 255 -399 395 -144 78 -233 191 -274 345
-17 65 -25 98 -49 220 -9 44 -18 91 -21 105 -3 14 -8 39 -10 55 -3 17 -8 37
-10 45 -2 8 -7 31 -10 50 -3 19 -15 85 -26 145 -12 61 -22 119 -24 130 -2 11
-13 82 -24 158 -12 77 -24 162 -27 190 -2 29 -7 61 -9 72 -19 91 -28 613 -13
760 25 252 69 438 136 572 96 191 248 438 386 628 118 163 238 306 284 336 26
18 58 42 72 54 14 12 74 50 134 83 l109 61 16 -28 c9 -15 23 -37 31 -47z
m-346 34 c-16 -18 -31 -35 -34 -38 -3 -3 -22 -25 -43 -49 -22 -24 -64 -64 -95
-89 -250 -202 -456 -505 -582 -852 -59 -165 -79 -215 -121 -305 -198 -424
-375 -1071 -415 -1515 -3 -36 -7 -71 -9 -77 -27 -84 -26 -833 0 -1028 2 -16 7
-57 10 -90 3 -33 7 -67 10 -75 4 -14 8 -39 20 -127 3 -21 10 -61 16 -89 5 -28
12 -63 15 -78 2 -16 12 -58 20 -95 9 -36 17 -73 19 -82 2 -10 17 -66 34 -125
72 -259 172 -528 374 -1000 181 -423 208 -492 289 -724 40 -114 105 -326 112
-365 2 -11 11 -47 19 -80 14 -53 28 -122 43 -212 2 -16 6 -37 9 -48 13 -60 20
-192 20 -365 0 -207 -4 -258 -35 -412 -11 -53 -20 -100 -20 -105 0 -4 -26 44
-58 107 -100 201 -240 394 -414 570 -112 113 -156 153 -403 358 -471 393 -634
561 -792 815 -124 201 -222 446 -268 675 -32 159 -38 212 -40 387 -2 181 10
303 46 473 39 180 107 390 231 711 60 158 136 363 143 391 3 8 20 67 39 130
36 123 72 283 81 365 3 28 8 57 10 65 8 32 16 139 17 235 1 93 3 104 33 162
18 34 50 99 70 145 20 46 40 92 45 103 29 64 151 462 165 536 9 45 101 364
132 459 125 375 291 636 543 851 217 185 703 505 789 518 3 1 -8 -14 -25 -31z
m-275 -42 c-2 -1 -62 -43 -134 -91 -115 -78 -301 -211 -315 -225 -3 -3 -27
-23 -55 -45 -65 -52 -230 -216 -282 -280 -100 -123 -205 -313 -264 -474 -12
-35 -24 -60 -26 -54 -6 18 104 438 127 482 4 9 20 46 35 84 41 102 122 232
193 308 132 143 305 226 572 274 128 24 157 28 149 21z m8017 -331 c28 -49 79
-146 112 -215 59 -123 192 -449 192 -471 0 -14 57 -183 76 -224 7 -16 30 -82
49 -145 153 -486 190 -603 235 -735 168 -488 349 -840 648 -1265 82 -116 237
-325 252 -340 3 -3 32 -39 65 -80 63 -80 486 -592 495 -600 3 -3 67 -79 141
-170 455 -554 670 -871 895 -1322 52 -103 94 -190 94 -192 0 -3 13 -35 30 -71
91 -199 201 -520 271 -795 45 -176 50 -202 44 -267 -5 -65 -4 -72 14 -78 24
-7 25 -11 50 -160 34 -203 39 -244 56 -430 4 -38 8 -80 10 -93 23 -146 23
-820 0 -1007 -2 -16 -7 -64 -10 -105 -5 -69 -30 -276 -41 -342 -10 -65 -14
-88 -28 -173 -16 -93 -18 -102 -37 -195 -20 -100 -89 -383 -121 -490 -16 -58
-32 -112 -34 -120 -1 -8 -23 -76 -48 -150 -214 -648 -502 -1238 -901 -1845
-338 -513 -721 -979 -1190 -1450 -318 -318 -586 -559 -910 -817 -55 -43 -113
-90 -130 -103 -16 -14 -59 -40 -95 -59 -125 -66 -203 -47 -231 56 -25 95 21
208 129 317 63 63 148 127 217 164 73 38 168 82 265 123 58 24 113 49 122 54
10 6 23 10 28 10 22 0 255 123 338 178 319 212 535 568 742 1222 100 316 360
1107 882 2685 155 468 283 855 285 860 1 6 32 102 68 215 76 238 133 446 168
615 24 111 29 140 43 235 3 19 7 46 10 60 2 14 6 59 10 100 3 41 7 86 10 100
11 65 3 434 -11 530 -3 19 -8 58 -11 85 -11 88 -52 272 -85 378 -18 56 -33
104 -34 107 -1 3 -5 12 -8 20 -4 8 -13 33 -21 55 -57 165 -246 537 -371 730
-18 28 -58 91 -90 140 -88 136 -190 280 -524 740 -538 740 -739 1061 -1027
1635 -384 765 -699 1595 -1119 2940 -94 302 -115 370 -115 377 0 12 88 -122
146 -222z m-8631 -1227 c-19 -114 -26 -469 -12 -683 7 -104 10 -136 22 -230 2
-22 7 -62 10 -90 4 -27 10 -75 15 -105 12 -75 20 -129 26 -170 5 -43 21 -131
39 -230 8 -41 17 -86 19 -100 3 -14 7 -36 10 -50 3 -14 13 -61 22 -105 8 -44
22 -105 29 -135 8 -30 16 -66 19 -80 10 -54 50 -168 78 -225 20 -39 62 -92
119 -150 85 -85 269 -319 269 -340 0 -5 -62 -28 -137 -50 -75 -22 -146 -48
-157 -57 -20 -16 -20 -19 -6 -45 10 -17 41 -41 83 -62 86 -44 187 -52 289 -23
49 14 70 16 77 8 4 -6 36 -62 71 -125 l63 -113 -6 -172 c-4 -94 -13 -214 -21
-266 -8 -52 -18 -113 -21 -135 -22 -135 -114 -431 -192 -620 -57 -137 -68
-204 -46 -298 24 -105 99 -196 209 -251 95 -48 165 -59 363 -61 204 -1 190 3
232 -77 49 -95 58 -193 34 -343 -30 -181 -14 -274 75 -428 71 -125 133 -181
212 -193 29 -4 130 -8 223 -9 153 -2 219 -7 265 -21 12 -3 15 -14 12 -44 -4
-38 -6 -40 -38 -40 -47 0 -100 -37 -124 -86 -18 -37 -71 -244 -86 -338 -22
-144 6 -230 98 -296 60 -44 136 -63 244 -62 l92 2 30 -48 c47 -75 76 -131 70
-137 -2 -3 -45 -7 -94 -10 -84 -5 -132 -9 -249 -21 -42 -4 -193 -28 -310 -49
-62 -12 -268 -66 -362 -96 -218 -69 -511 -201 -688 -309 -400 -244 -737 -573
-956 -932 -27 -46 -54 -87 -59 -92 -12 -12 -64 72 -80 129 -16 57 -8 191 15
260 64 189 134 278 448 568 64 60 144 142 178 183 98 120 174 284 194 419 4
22 8 51 11 65 2 14 4 63 4 110 0 103 -6 150 -32 260 -9 39 -7 58 15 135 29
103 35 131 52 235 4 25 9 52 10 60 16 86 22 358 11 460 -3 25 -8 70 -11 100
-42 385 -164 766 -473 1485 -250 582 -332 806 -417 1143 -18 76 -36 148 -39
162 -28 142 -46 255 -62 380 -3 25 -7 55 -9 68 -28 163 -28 845 0 1067 2 17 7
55 10 85 8 67 14 117 20 150 3 14 7 41 10 60 40 247 123 574 213 830 71 205
90 247 77 178z m9291 -143 c90 -118 300 -329 444 -447 193 -159 312 -244 770
-553 519 -350 635 -441 881 -685 264 -262 423 -491 572 -824 105 -233 210
-577 251 -821 38 -229 43 -263 52 -373 3 -42 7 -83 9 -90 9 -25 19 -334 19
-542 0 -306 -23 -822 -37 -836 -2 -2 -11 24 -21 58 -50 182 -136 435 -196 573
-4 11 -25 61 -46 110 -114 277 -276 570 -488 885 -205 303 -368 513 -827 1061
-474 567 -698 867 -894 1194 -205 342 -331 635 -495 1145 -40 124 -75 232 -78
240 -7 21 4 9 84 -95z m-5756 -610 c-26 -32 -143 -87 -450 -213 -173 -71 -423
-175 -555 -230 -132 -55 -327 -134 -433 -176 -370 -146 -528 -249 -634 -410
-38 -60 -78 -167 -78 -212 0 -31 -12 -30 -64 5 -162 112 -180 280 -44 427 100
109 511 381 768 510 172 86 356 147 509 170 20 3 43 7 51 9 8 2 38 7 65 10 28
3 64 8 80 10 33 5 122 13 226 20 174 12 285 26 433 56 55 11 107 24 115 29 23
13 25 12 11 -5z m-240 -807 c-68 -59 -179 -104 -355 -142 -177 -39 -173 -38
-152 -26 9 6 25 13 35 15 9 2 37 11 62 20 25 9 52 18 60 20 95 21 336 118 364
145 5 6 12 7 15 4 3 -3 -10 -19 -29 -36z m4395 -185 c-9 -116 -15 -195 -20
-278 -16 -240 -32 -315 -88 -393 -76 -105 -243 -128 -319 -42 -59 65 -30 144
118 320 53 63 110 135 127 160 17 25 33 47 37 50 11 9 98 154 121 203 13 26
24 47 26 47 2 0 1 -30 -2 -67z m-4230 27 c-36 -40 -135 -79 -220 -87 -147 -15
-151 -4 -10 33 72 18 153 42 180 53 64 26 72 26 50 1z m-674 -161 c99 -70 155
-261 105 -356 -22 -44 -93 -101 -140 -114 -56 -15 -140 -13 -196 6 -131 44
-206 187 -164 317 13 41 56 98 73 98 3 0 5 -21 3 -46 -8 -90 53 -186 125 -200
44 -8 103 9 131 38 71 77 56 206 -32 259 l-31 19 48 0 c33 0 58 -7 78 -21z
m278 -5 c66 -8 109 -29 116 -57 8 -31 -37 -168 -75 -227 -35 -54 -70 -88 -127
-123 l-42 -26 26 55 c51 112 31 255 -53 371 l-16 23 63 -5 c35 -3 84 -8 108
-11z m-414 -61 c30 -22 47 -75 35 -108 -11 -28 -43 -47 -73 -43 -46 7 -83 105
-61 163 9 21 62 15 99 -12z m-326 -38 c-11 -24 -21 -71 -24 -104 -11 -164 102
-304 280 -344 l55 -12 -78 -29 c-42 -16 -144 -56 -227 -89 -84 -34 -172 -62
-200 -65 -27 -2 -53 -9 -56 -14 -9 -15 -27 -2 -45 34 -21 40 -21 111 0 224 29
164 71 260 145 334 42 42 143 110 163 110 4 0 -2 -20 -13 -45z m-353 -207 c-8
-18 -22 -62 -32 -98 -10 -36 -22 -68 -28 -72 -6 -4 -41 -7 -78 -7 -37 0 -78
-3 -90 -6 -23 -7 -23 -6 2 17 56 53 225 198 232 198 4 0 1 -15 -6 -32z m-1292
-335 c45 -30 136 -113 136 -122 0 -4 -14 -12 -30 -18 -28 -11 -32 -9 -53 20
-13 18 -42 58 -65 90 -24 31 -39 57 -35 57 4 0 25 -12 47 -27z m1298 -174
c-13 -11 -73 -32 -77 -27 -3 2 5 31 17 64 l22 60 23 -45 c12 -25 19 -48 15
-52z m-1096 -65 c12 -29 11 -32 -12 -42 -22 -11 -26 -8 -48 26 -21 33 -22 38
-7 44 31 13 55 3 67 -28z m-142 -37 c15 -19 26 -36 26 -39 0 -11 -105 -32
-152 -30 -52 1 -133 20 -125 29 5 5 203 70 219 72 4 1 18 -14 32 -32z m6563
-35 c26 -17 30 -56 13 -127 -10 -44 -14 -82 -9 -102 8 -38 0 -41 -43 -15 -82
48 -95 173 -23 234 22 19 43 22 62 10z m-6379 -80 c6 -23 8 -42 6 -42 -2 0
-13 18 -24 39 -14 29 -16 41 -7 44 16 6 14 8 25 -41z m6225 -216 c22 -17 33
-51 52 -160 25 -147 35 -127 -144 -305 -362 -363 -507 -629 -515 -950 -7 -257
87 -473 273 -624 l33 -28 -36 -47 c-56 -71 -226 -252 -238 -252 -34 0 -210
180 -284 291 -140 210 -199 402 -198 654 0 207 40 372 144 590 49 103 158 275
224 355 155 187 370 359 550 439 34 15 72 32 86 38 32 15 32 15 53 -1z m378
-57 c-74 -75 -88 -176 -39 -279 23 -47 109 -138 265 -277 126 -114 203 -235
227 -358 4 -16 9 -41 13 -55 9 -39 12 -308 3 -375 -5 -33 -10 -80 -13 -105 -9
-75 -37 -229 -47 -255 -5 -14 -8 -25 -6 -25 3 0 -13 -35 -33 -77 -60 -123
-161 -204 -311 -251 -136 -43 -338 -36 -500 18 -61 21 -120 47 -120 54 0 1 20
38 45 82 101 176 189 471 220 739 3 28 8 61 10 75 8 44 30 212 40 310 3 30 8
73 11 95 2 22 6 124 9 227 4 177 5 190 28 230 34 58 46 106 42 171 l-4 55 39
0 c41 1 119 20 135 34 5 4 13 8 18 8 5 0 -10 -19 -32 -41z m-239 -38 c8 -87
-3 -88 -20 -1 -9 48 -8 52 4 35 8 -10 15 -26 16 -34z m590 25 c168 -59 349
-228 479 -446 107 -178 159 -325 200 -560 10 -62 14 -289 5 -340 -3 -14 -7
-42 -10 -62 -9 -59 -26 -129 -43 -178 -8 -25 -16 -49 -17 -55 -13 -52 -94
-213 -149 -296 -295 -449 -790 -658 -1320 -559 -117 23 -383 129 -375 151 2 4
32 38 68 76 74 78 120 131 168 190 l33 41 50 -24 c64 -31 201 -71 276 -80 258
-32 484 29 623 166 62 61 95 114 127 205 29 83 41 140 58 275 4 30 9 64 11 75
11 55 19 194 18 310 -2 268 -86 470 -253 605 -30 25 -99 88 -153 140 -143 141
-175 225 -115 304 64 83 190 108 319 62z m2058 -211 c17 -9 40 -34 52 -58 20
-37 22 -57 23 -172 0 -71 -3 -150 -7 -175 -18 -121 -64 -294 -99 -375 -5 -11
-17 -43 -28 -72 -25 -65 -106 -226 -159 -317 l-41 -68 4 73 c2 41 6 265 9 499
4 234 9 441 12 460 15 100 49 159 114 199 41 25 80 27 120 6z m-2714 -297 c-4
-84 -9 -175 -12 -203 -6 -66 -42 -344 -54 -420 -5 -33 -12 -80 -15 -105 -12
-85 -55 -266 -86 -360 -35 -107 -122 -290 -149 -315 -18 -16 -22 -15 -65 21
-113 94 -185 226 -220 404 -7 31 -7 187 -1 216 2 12 7 37 10 56 5 33 32 120
58 188 37 97 137 256 232 371 63 76 289 299 303 299 3 0 3 -69 -1 -152z
m-5476 -1051 c0 -37 -149 -117 -217 -117 l-28 0 30 25 c35 29 181 105 201 105
8 0 14 -6 14 -13z m-2736 -119 c31 -37 98 -110 149 -161 110 -111 182 -176
477 -423 265 -222 458 -409 583 -565 104 -129 217 -329 266 -471 l18 -53 -37
-90 c-39 -96 -88 -193 -145 -290 -19 -33 -40 -71 -47 -85 l-11 -25 -9 35
c-110 403 -265 681 -743 1325 -272 367 -414 581 -525 790 -58 110 -58 110 24
13z m3216 -657 c72 -15 81 -18 160 -46 150 -54 424 -136 539 -160 9 -2 61 -15
116 -28 83 -20 95 -25 70 -30 -52 -11 -208 -36 -255 -41 -86 -10 -145 -17
-180 -22 -19 -3 -92 -8 -162 -11 -206 -10 -271 11 -441 140 -45 34 -101 71
-124 81 l-43 19 28 24 c74 67 188 96 292 74z m7405 -146 c4 -60 8 -117 10
-125 1 -8 6 -64 10 -125 3 -60 8 -126 10 -145 2 -19 6 -85 10 -145 3 -61 7
-137 10 -170 15 -232 20 -448 20 -925 0 -587 -5 -734 -40 -1105 -10 -97 -19
-183 -30 -265 -3 -19 -7 -53 -10 -75 -5 -53 -35 -246 -40 -265 -2 -8 -6 -33
-10 -54 -4 -32 -31 -170 -81 -416 -43 -213 -186 -676 -291 -945 -53 -134 -64
-160 -120 -285 -262 -583 -627 -1116 -1022 -1494 -35 -33 -73 -70 -85 -81 -30
-28 -171 -143 -236 -192 -145 -108 -353 -227 -530 -302 -86 -36 -300 -104
-368 -116 -15 -2 -52 -9 -82 -15 -171 -33 -467 -35 -635 -4 -16 3 -31 7 -33 9
-2 1 27 13 65 25 375 124 747 335 1088 619 88 74 372 352 451 441 261 299 532
705 724 1090 210 419 413 970 566 1535 60 222 187 744 220 900 2 11 6 31 9 45
10 47 14 65 54 265 22 110 42 214 45 230 3 17 8 41 11 55 10 54 43 237 51 285
2 17 9 53 14 80 5 28 12 66 14 85 3 19 15 91 26 160 12 69 23 141 25 160 4 36
10 76 25 170 5 30 12 78 15 105 3 28 8 64 10 80 3 17 9 68 15 115 6 47 13 96
15 110 2 14 7 54 10 90 4 36 9 72 10 80 1 8 6 47 9 85 4 39 9 81 11 95 6 42
24 210 31 300 3 47 8 92 9 100 2 8 4 24 4 34 2 47 9 2 16 -99z m-2930 17 c115
-59 244 -99 392 -122 75 -12 296 -16 329 -7 11 3 44 9 74 12 47 6 182 41 232
60 13 5 -3 -52 -68 -244 -114 -340 -233 -749 -268 -921 -3 -14 -16 -80 -30
-148 -14 -68 -26 -131 -26 -141 0 -35 -273 -210 -432 -277 -160 -68 -331 -114
-535 -145 -230 -35 -616 -32 -888 7 -16 2 -46 6 -65 8 -19 2 -102 16 -185 31
-82 15 -155 28 -162 28 -6 0 -19 30 -29 66 -21 84 -77 243 -113 323 l-27 62
245 209 c136 116 266 229 291 251 25 23 74 66 109 96 100 86 221 192 245 215
6 6 67 60 136 120 68 61 134 118 145 129 11 10 127 112 257 227 130 115 240
214 243 219 4 7 18 4 38 -9 18 -10 59 -32 92 -49z m-4945 -78 c-11 -25 -23
-60 -26 -77 -8 -46 -19 -52 -40 -20 -27 40 -66 114 -62 118 12 10 70 24 105
24 l42 1 -19 -46z m195 -2 c22 -11 66 -41 98 -66 152 -118 242 -147 451 -141
78 2 150 6 161 8 11 3 52 8 90 11 39 4 77 9 85 11 8 2 42 6 75 10 33 3 77 10
99 15 61 13 28 -5 -60 -34 -85 -28 -95 -30 -208 -50 -86 -15 -285 -10 -356 9
-8 2 -33 7 -55 10 -23 3 -50 7 -61 9 -77 15 -149 20 -294 20 -91 1 -170 4
-177 9 -17 11 20 166 49 204 11 13 45 5 103 -25z m1222 -403 c-96 -241 -157
-350 -249 -450 -82 -88 -199 -161 -298 -188 -334 -88 -535 -11 -513 196 5 52
50 257 69 315 25 78 73 95 179 63 77 -24 94 -26 194 -29 129 -4 238 20 376 84
62 28 254 153 290 188 11 10 21 16 23 12 1 -3 -31 -89 -71 -191z m-77 186 c0
-7 -130 -90 -187 -118 -120 -61 -232 -87 -353 -83 -140 5 -193 28 -188 80 3
26 7 31 28 28 14 -1 95 -4 180 -7 127 -3 170 -1 241 15 86 19 229 63 258 80
19 11 21 12 21 5z m-2555 -877 c4 -151 -9 -228 -57 -351 -44 -110 -145 -252
-238 -332 l-23 -20 10 20 c10 19 32 111 39 165 2 14 4 63 5 110 l1 85 68 115
c38 63 95 168 126 232 32 64 60 115 62 113 2 -2 6 -64 7 -137z m4344 -400 c44
-113 85 -248 78 -255 -8 -7 -438 99 -435 108 2 4 71 63 153 132 171 142 156
141 204 15z m-4692 -100 c-16 -167 -80 -299 -204 -424 -103 -103 -166 -183
-217 -274 -20 -36 -36 -62 -36 -58 0 28 128 286 215 430 66 110 239 377 244
378 2 0 1 -24 -2 -52z m-495 -911 c-14 -49 -7 -185 12 -250 9 -30 36 -82 61
-115 l44 -61 -38 -83 c-21 -46 -49 -111 -62 -145 -22 -58 -37 -78 -40 -53 -1
6 -2 13 -3 18 -33 130 -40 181 -40 287 -1 110 8 226 19 257 2 7 7 27 9 43 10
55 40 159 44 147 2 -6 -1 -26 -6 -45z m-154 -2179 c0 -30 4 -72 17 -178 2 -19
7 -60 10 -90 3 -30 8 -66 10 -80 2 -14 7 -45 10 -70 3 -25 12 -83 20 -130 8
-47 17 -103 20 -125 3 -22 8 -51 11 -65 2 -14 6 -34 8 -45 2 -11 7 -38 11 -60
4 -22 9 -51 11 -65 3 -14 9 -41 14 -60 25 -96 41 -224 35 -281 -19 -181 -162
-239 -255 -104 -41 60 -58 111 -67 203 -14 138 -6 520 12 607 2 11 7 42 10 69
15 125 91 465 111 498 10 15 13 8 12 -24z m4447 -1683 c247 -28 554 -141 836
-306 25 -14 65 -37 90 -51 24 -14 96 -56 159 -93 307 -181 482 -272 635 -330
67 -26 67 -25 -50 -45 -156 -25 -488 -34 -673 -17 -424 39 -869 206 -1178 442
-172 132 -232 232 -189 315 42 82 163 110 370 85z"/>
<path d="M8728 11065 c-2 -1 -41 -5 -88 -9 -47 -3 -116 -12 -155 -21 -68 -14
-97 -21 -260 -65 -263 -70 -505 -209 -695 -400 -151 -151 -254 -314 -313 -495
-37 -113 -39 -126 -43 -258 -2 -93 1 -132 17 -190 79 -282 348 -474 739 -527
282 -38 537 18 764 168 144 95 572 548 678 717 81 129 147 286 163 385 23 146
8 292 -41 397 -54 113 -186 215 -334 256 -52 14 -78 19 -161 32 -37 6 -266 14
-271 10z"/>
<path d="M4446 4493 c-1 -2 -47 -5 -102 -8 -111 -6 -162 -11 -279 -26 -71 -8
-101 -14 -205 -34 -14 -3 -37 -7 -51 -10 -98 -18 -245 -86 -274 -127 -35 -51
-8 -130 74 -213 55 -56 83 -66 113 -42 35 28 29 46 -32 112 -33 36 -60 71 -60
79 0 43 288 116 555 140 28 3 77 8 110 11 101 9 225 15 335 16 116 1 150 13
150 53 0 12 -9 31 -19 40 -17 15 -38 17 -166 14 -81 -1 -148 -4 -149 -5z"/>
<path d="M4178 4313 c-15 -4 -88 -111 -88 -129 0 -3 -17 -36 -39 -72 -21 -37
-52 -92 -68 -122 -17 -30 -70 -127 -119 -215 -48 -88 -99 -182 -112 -208 -16
-32 -28 -45 -36 -39 -6 5 -41 33 -79 62 -71 55 -105 61 -126 21 -18 -33 1 -60
93 -134 119 -96 131 -102 159 -84 12 8 85 128 161 268 77 140 147 268 156 284
10 17 36 66 59 109 23 43 51 92 61 109 39 65 50 98 40 118 -13 23 -39 37 -62
32z"/>
<path d="M4979 4163 c-9 -2 -76 -100 -150 -218 -73 -118 -134 -213 -136 -212
-1 2 17 54 41 116 24 62 41 122 39 131 -3 10 -18 24 -35 31 -26 10 -32 10 -48
-7 -23 -24 -213 -520 -211 -554 2 -47 51 -81 103 -71 3 0 72 105 153 231 81
127 149 230 150 230 2 0 13 -19 24 -43 49 -102 144 -129 340 -97 36 5 82 13
101 16 19 3 62 11 95 19 33 7 61 12 62 11 1 -1 -13 -25 -32 -53 -111 -165
-128 -291 -41 -305 52 -9 150 49 221 130 l30 34 1 -52 c1 -44 5 -56 32 -82 26
-27 38 -31 79 -31 94 2 294 87 528 226 120 70 127 73 115 41 -5 -13 -12 -51
-16 -84 -10 -107 48 -183 140 -182 118 1 345 82 624 222 95 48 171 83 168 76
-68 -161 -82 -234 -50 -274 45 -56 130 -14 283 139 52 52 92 90 89 84 -3 -5
-27 -64 -52 -130 -26 -66 -53 -123 -61 -128 -30 -16 -251 -186 -269 -206 -23
-25 -30 -75 -14 -104 25 -48 113 -147 144 -162 26 -12 38 -13 58 -4 29 14 38
31 101 204 84 229 62 201 242 307 87 52 190 111 228 131 244 126 243 125 231
170 -11 47 -49 46 -146 -4 -78 -40 -268 -144 -364 -198 -21 -12 -40 -21 -41
-19 -2 2 37 108 85 237 48 129 85 241 83 250 -6 24 -37 41 -62 34 -13 -3 -43
-37 -71 -78 -74 -110 -159 -211 -258 -307 -49 -49 -92 -88 -95 -88 -9 0 15 55
109 251 84 174 91 199 56 215 -48 22 -59 14 -112 -82 -27 -47 -40 -58 -164
-128 -241 -137 -513 -256 -665 -290 -97 -22 -111 -17 -111 40 0 86 59 209 140
293 69 71 128 87 113 31 -5 -20 21 -50 46 -50 50 0 77 79 47 138 -46 90 -159
73 -283 -41 -61 -57 -227 -160 -453 -283 -150 -81 -270 -132 -321 -136 -31 -3
-34 -1 -35 27 -2 62 34 191 75 267 26 47 44 97 48 127 5 44 3 52 -20 75 -14
14 -35 26 -47 26 -35 0 -104 -38 -161 -89 -54 -48 -80 -58 -229 -86 -14 -3
-47 -9 -75 -15 -107 -22 -126 -25 -227 -36 -152 -16 -191 62 -123 243 14 36
25 74 25 84 0 16 -36 51 -50 48 -3 -1 -12 -3 -21 -6z m786 -332 c-51 -103
-198 -281 -257 -312 -16 -9 -16 -7 -1 28 26 62 113 182 190 260 39 40 77 73
83 73 5 0 -1 -22 -15 -49z m1750 -633 c-4 -13 -13 -36 -21 -52 -8 -16 -14 -32
-14 -36 0 -4 -7 -25 -16 -46 l-16 -38 -29 32 c-27 31 -38 62 -21 62 4 1 32 23
62 50 30 28 56 50 58 50 2 0 0 -10 -3 -22z"/>
<path d="M9027 4009 c-20 -12 -160 -288 -201 -398 -30 -77 -41 -140 -32 -175
7 -28 50 -55 79 -50 41 6 118 67 230 179 l69 70 -25 -50 c-32 -65 -38 -104
-21 -144 32 -75 141 -71 359 15 95 38 388 186 490 247 32 20 62 32 65 27 3 -5
4 -27 2 -49 -4 -44 -30 -70 -162 -168 -54 -41 -65 -53 -65 -78 0 -21 7 -33 24
-42 30 -14 49 -6 138 61 33 25 63 46 66 46 2 0 7 -13 10 -29 4 -17 21 -40 42
-56 69 -54 194 -27 430 91 152 76 226 126 222 152 -11 66 -49 70 -143 13 -199
-121 -427 -206 -450 -169 -5 7 -9 30 -9 50 -1 34 6 45 68 105 149 147 267 282
267 306 0 27 -17 46 -49 52 -24 4 -37 -8 -174 -158 -55 -59 -102 -107 -106
-107 -4 0 -7 21 -6 47 2 37 -2 51 -20 69 -14 14 -32 22 -44 19 -11 -2 -74 -35
-139 -74 -159 -94 -407 -220 -509 -259 -98 -38 -203 -64 -203 -51 0 5 42 106
94 223 104 236 103 232 93 263 -19 55 -70 35 -132 -53 -89 -124 -304 -356
-357 -385 -16 -9 -16 -7 -2 28 9 21 54 118 101 215 72 150 83 179 73 197 -6
12 -15 21 -20 21 -4 0 -14 2 -22 5 -7 2 -21 0 -31 -6z"/>
<path d="M8482 3513 c-21 -8 -44 -62 -36 -86 22 -71 114 -38 114 41 0 35 -42
60 -78 45z"/>
</g>
</svg>
