<svg xmlns="http://www.w3.org/2000/svg" width="39.189" height="46.019" viewBox="0 0 39.189 46.019">
  <path id="Path_544" data-name="Path 544" d="M208.61,28.28q-.278.5-7.15,12.687a2.141,2.141,0,0,1-1.808,1.28H193a.931.931,0,0,1-.863-.473.97.97,0,0,1,0-1l7.039-12.465q.028,0,0-.028L194.7,20.517a.908.908,0,0,1-.028-1.029.952.952,0,0,1,.89-.417h6.65a2.114,2.114,0,0,1,1.836,1.252Zm22.425-17.862a.939.939,0,0,1,0,1.029l-14.69,25.987v.028l9.348,17.111a.919.919,0,0,1-.862,1.447h-6.65a2.034,2.034,0,0,1-1.836-1.252l-9.432-17.306q.5-.89,14.774-26.209A2.04,2.04,0,0,1,223.467,10h6.705A.923.923,0,0,1,231.035,10.417Z" transform="translate(-192 -10)"/>
</svg>
