<svg xmlns="http://www.w3.org/2000/svg" width="25.676" height="30.152" viewBox="0 0 25.676 30.152">
  <path id="Path_544" data-name="Path 544" d="M202.883,21.977q-.182.328-4.685,8.313a1.4,1.4,0,0,1-1.185.839h-4.357a.61.61,0,0,1-.565-.31.636.636,0,0,1,0-.656L196.7,22q.018,0,0-.018l-2.935-5.086a.6.6,0,0,1-.018-.674.624.624,0,0,1,.583-.273h4.357a1.385,1.385,0,0,1,1.2.82Zm14.693-11.7a.615.615,0,0,1,0,.674l-9.625,17.026v.018L214.076,39.2a.6.6,0,0,1-.565.948h-4.357a1.333,1.333,0,0,1-1.2-.82l-6.18-11.339,9.68-17.172a1.337,1.337,0,0,1,1.167-.82h4.393A.605.605,0,0,1,217.576,10.273Z" transform="translate(-192 -10)"/>
</svg>
